<?xml version="1.0" standalone="no"?>
<!DOCTYPE svg PUBLIC "-//W3C//DTD SVG 20010904//EN"
 "http://www.w3.org/TR/2001/REC-SVG-20010904/DTD/svg10.dtd">
<svg version="1.0" xmlns="http://www.w3.org/2000/svg"
 width="480.000000pt" height="480.000000pt" viewBox="0 0 480.000000 480.000000"
 preserveAspectRatio="xMidYMid meet">
<metadata>
Created by potrace 1.11, written by Peter Selinger 2001-2013
</metadata>
<g transform="translate(0.000000,480.000000) scale(0.100000,-0.100000)"
fill="#000000" stroke="none">
<path d="M1227 4624 c-1 -1 -36 -4 -77 -7 -41 -4 -86 -9 -100 -12 -113 -22
-144 -30 -205 -52 -179 -64 -372 -189 -496 -321 -158 -167 -259 -353 -316
-582 -23 -91 -27 -128 -29 -285 -6 -598 228 -1050 837 -1610 113 -104 138
-127 319 -285 91 -80 170 -149 176 -155 6 -5 44 -39 84 -75 164 -144 447 -420
581 -565 80 -87 252 -298 324 -398 39 -53 72 -96 75 -96 3 0 31 38 64 85 151
221 325 424 591 689 191 192 282 277 480 451 49 43 99 88 111 99 11 11 52 47
89 80 184 160 521 491 591 580 21 28 44 55 50 60 19 18 91 119 148 206 105
163 201 386 236 549 36 170 50 429 29 565 -15 98 -59 244 -100 333 -34 75
-104 199 -118 212 -4 3 -19 23 -35 45 -50 68 -197 207 -277 262 -173 118 -367
192 -579 218 -61 8 -236 8 -285 0 -181 -28 -294 -63 -433 -135 -214 -110 -420
-310 -527 -513 -16 -31 -32 -57 -35 -57 -3 0 -16 21 -30 47 -193 364 -580 622
-985 659 -69 6 -155 10 -158 8z"/>
</g>
</svg>
